HIERARCHY
ROOT RootJoint
{
    OFFSET   0.000000   0.000000   0.000000
    CHANNELS 6 Xposition Yposition Zposition Xrotation Yrotation Zrotation
    JOINT pelvis_lowerback
    {
        OFFSET   0.000000   0.093605   0.000000
        CHANNELS 3 Xrotation Yrotation Zrotation
        JOINT lowerback_torso
        {
            OFFSET   0.000000   0.100000   0.000000
            CHANNELS 3 Xrotation Yrotation Zrotation
            JOINT torso_head
            {
                OFFSET   0.000000   0.282350   0.000000
                CHANNELS 3 Xrotation Yrotation Zrotation
                End Site
                {
                    OFFSET   0.000000   0.192650   0.000000
                }
            }
            JOINT rTorso_Clavicle
            {
                OFFSET  -0.001000   0.157500   0.000000
                CHANNELS 3 Xrotation Yrotation Zrotation
                JOINT rShoulder
                {
                    OFFSET  -0.117647   0.000000   0.000000
                    CHANNELS 3 Xrotation Yrotation Zrotation
                    JOINT rElbow
                    {
                        OFFSET  -0.245000   0.000000   0.000000
                        CHANNELS 3 Xrotation Yrotation Zrotation
                        JOINT rWrist
                        {
                            OFFSET  -0.240000   0.000000   0.000000
                            CHANNELS 3 Xrotation Yrotation Zrotation
                            End Site
                            {
                                OFFSET  -0.116353  -0.002500   0.000000
                            }
                        }
                    }
                }
            }
            JOINT lTorso_Clavicle
            {
                OFFSET   0.001000   0.157500   0.000000
                CHANNELS 3 Xrotation Yrotation Zrotation
                JOINT lShoulder
                {
                    OFFSET   0.117647   0.000000   0.000000
                    CHANNELS 3 Xrotation Yrotation Zrotation
                    JOINT lElbow
                    {
                        OFFSET   0.245000   0.000000   0.000000
                        CHANNELS 3 Xrotation Yrotation Zrotation
                        JOINT lWrist
                        {
                            OFFSET   0.240000   0.000000   0.000000
                            CHANNELS 3 Xrotation Yrotation Zrotation
                            End Site
                            {
                                OFFSET   0.116353  -0.002500   0.000000
                            }
                        }
                    }
                }
            }
        }
    }
    JOINT rHip
    {
        OFFSET  -0.100000  -0.051395   0.000000
        CHANNELS 3 Xrotation Yrotation Zrotation
        JOINT rKnee
        {
            OFFSET   0.000000  -0.410000   0.000000
            CHANNELS 3 Xrotation Yrotation Zrotation
            JOINT rAnkle
            {
                OFFSET   0.000000  -0.390000   0.000000
                CHANNELS 3 Xrotation Yrotation Zrotation
                JOINT rToeJoint
                {
                    OFFSET   0.000000  -0.050000   0.130000
                    CHANNELS 3 Xrotation Yrotation Zrotation
                    End Site
                    {
                        OFFSET  -0.010000   0.002000   0.060000
                    }
                }
            }
        }
    }
    JOINT lHip
    {
        OFFSET   0.100000  -0.051395   0.000000
        CHANNELS 3 Xrotation Yrotation Zrotation
        JOINT lKnee
        {
            OFFSET   0.000000  -0.410000   0.000000
            CHANNELS 3 Xrotation Yrotation Zrotation
            JOINT lAnkle
            {
                OFFSET   0.000000  -0.390000   0.000000
                CHANNELS 3 Xrotation Yrotation Zrotation
                JOINT lToeJoint
                {
                    OFFSET   0.000000  -0.050000   0.130000
                    CHANNELS 3 Xrotation Yrotation Zrotation
                    End Site
                    {
                        OFFSET   0.010000   0.002000   0.060000
                    }
                }
            }
        }
    }
}
MOTION
Frames: 17
Frame Time:   0.008333
 -2.376719   0.925631   3.975860   0.000000   0.000000   0.000000   0.000000   0.000000   0.000000   0.000000   0.000000   0.000000   0.000000   0.000000   0.000000   0.000000   0.000000   0.000000   0.000000   0.000000   0.000000   0.000000   0.000000   0.000000   0.000000   0.000000   0.000000   0.000000   0.000000   0.000000   0.000000   0.000000   0.000000   0.000000   0.000000   0.000000   0.000000   0.000000   0.000000   0.000000   0.000000   0.000000   0.000000   0.000000   0.000000   0.000000   0.000000   0.000000   0.000000   0.000000   0.000000   0.000000   0.000000   0.000000   0.000000   0.000000   0.000000   0.000000   0.000000   0.000000   0.000000   0.000000   0.000000
 -2.376373   0.926063   3.975385   0.433085   0.085348   0.103221  -0.564030   0.117743  -0.118419   0.248285  -0.172191   0.081329  -0.040595   0.215756  -0.017635   0.507752  -0.862285   0.119269   0.983535   0.026418   2.137286   0.063896   3.088171  -0.044666   0.106604  -0.893888  -2.637143   0.211573   0.277985  -0.183815   0.950461   0.163273  -2.186489   0.037528  -1.848990   0.021095   0.112424   0.509172   2.600946  -0.902734  -0.157310  -0.454901   1.146579   0.003495  -0.000786  -0.968794  -0.624239   0.053254   0.038709   0.000100  -0.000235  -0.868786  -0.004132   0.123719   1.104860  -0.002190   0.000797  -1.190306   0.284361   0.010726   0.222809  -0.000462   0.000706
 -2.375891   0.926814   3.974914   0.796258   0.204465   0.209698  -1.068779   0.220303  -0.209968   0.529850  -0.362369   0.170778  -0.051918   0.426767  -0.029357   1.000430  -1.668695   0.898440   1.938561   0.146722   4.796866   0.148983   6.065702  -0.078151   0.283363  -0.933868  -4.655934   0.421770   0.496079  -1.042424   1.885645   0.226575  -4.920086   0.085978  -3.634831   0.037350   0.274511   0.514985   4.509146  -1.756265  -0.308373  -1.186644   2.325940   0.009141  -0.001326  -1.870572  -1.220854   0.088145   0.042789   0.000100  -0.000211  -1.656264  -0.007488   0.459386   2.239039  -0.006113   0.001940  -2.304644   0.556814   0.028321   0.369053  -0.000954   0.001057
 -2.375343   0.927495   3.974487   1.127072   0.340310   0.304895  -1.533282   0.306560  -0.274136   0.804247  -0.551499   0.269753  -0.058294   0.624004  -0.036886   1.474231  -2.375222   2.094032   2.864062   0.342654   7.801343   0.233558   8.857685  -0.100814   0.467453  -0.751504  -5.914566   0.620164   0.646121  -2.311660   2.803271   0.199707  -8.004632   0.133273  -5.316769   0.048771   0.441537   0.355680   5.647151  -2.565724  -0.436887  -2.121443   3.438543   0.015330  -0.001747  -2.710708  -1.782031   0.109243   0.044528   0.000092  -0.000177  -2.372767  -0.016156   0.987835   3.314536  -0.010703   0.003137  -3.344308   0.814298   0.051433   0.497366  -0.001485   0.001279
 -2.374777   0.927818   3.974131   1.439331   0.483653   0.388280  -1.965297   0.380391  -0.318296   1.059969  -0.734976   0.373947  -0.064536   0.808083  -0.041097   1.933595  -2.993769   3.538733   3.765054   0.610465  11.042436   0.307628  11.467774  -0.115235   0.643949  -0.511199  -6.582073   0.806055   0.745834  -3.826163   3.692530   0.091642 -11.279578   0.173701  -6.895471   0.056229   0.605900   0.127900   6.193994  -3.338246  -0.540752  -3.210538   4.473949   0.021186  -0.002173  -3.495029  -2.308854   0.119025   0.041587   0.000049  -0.000129  -3.029747  -0.032653   1.676188   4.322407  -0.015286   0.004272  -4.315120   1.056990   0.079041   0.609730  -0.001969   0.001394
 -2.374255   0.927554   3.973862   1.737182   0.630425   0.463367  -2.369578   0.444980  -0.353327   1.295152  -0.910390   0.469332  -0.070709   0.979799  -0.040368   2.380127  -3.540919   5.123831   4.642930   0.943687  14.448324   0.366977  13.904235  -0.123467   0.807063  -0.266625  -6.826553   0.980697   0.813730  -5.505837   4.515405  -0.079045 -14.531275   0.204218  -8.374417   0.060149   0.763460  -0.130740   6.272357  -4.074972  -0.619637  -4.414411   5.435647   0.026235  -0.002620  -4.227781  -2.802847   0.119500   0.034482  -0.000029  -0.000073  -3.632956  -0.058269   2.493156   5.265556  -0.019486   0.005300  -5.221752   1.285191   0.110127   0.708598  -0.002371   0.001430
 -2.373767   0.926518   3.973686   2.021605   0.776578   0.528294  -2.749668   0.501219  -0.377692   1.510890  -1.078006   0.569722  -0.076183   1.140145  -0.042797   2.818583  -4.031635   6.818824   5.457324   1.319229  17.821488   0.409075  16.177536  -0.126283   0.954348  -0.036023  -6.705119   1.144812   0.864312  -7.259532   5.274175  -0.295319 -17.698638   0.224516  -9.757493   0.061419   0.910765  -0.397006   6.041441  -4.775989  -0.674093  -5.700435   6.329381   0.030311  -0.003082  -4.912530  -3.265466   0.112516   0.024604  -0.000127  -0.000021  -4.186036  -0.093293   3.410298   6.148649  -0.023056   0.006181  -6.068489   1.499444   0.143929   0.795857  -0.002671   0.001410
 -2.373112   0.924116   3.973330   2.283618   0.703477   0.512446  -3.019908   0.578116  -0.188877   1.688522  -1.171434   0.621120  -0.275446   1.268763  -0.050505   3.180238  -4.346459   8.004663   6.270557   1.658716  20.873180   0.449332  18.902078  -0.133451   1.013446  -0.121731  -5.558948   1.411773   0.971452  -8.460180   5.840276  -0.556750 -20.874318   0.231611 -11.092897   0.061530   0.984108  -0.665129   5.015902  -5.676914  -1.017746  -6.867843   7.658590   0.037046  -0.010379  -5.481284  -3.778008   0.282425   0.073694   0.000329  -0.000457  -4.539411   0.259648   4.363955   6.364243  -0.020114   0.005749  -6.182279   1.799291   0.343354   0.975236  -0.003894   0.002085
 -2.372395   0.920526   3.972923   2.528019   0.625231   0.482540  -3.252972   0.639027   0.034535   1.854690  -1.244830   0.689126  -0.471224   1.383551  -0.046959   3.498725  -4.588660   8.932546   6.995034   2.046927  23.593940   0.463324  21.477291  -0.135526   1.096863  -0.029951  -4.505954   1.654913   1.051220  -9.443253   6.350672  -0.834041 -23.751259   0.228150 -12.345767   0.060085   1.051896  -0.951364   4.025633  -6.541184  -1.347802  -7.979991   8.949572   0.041274  -0.016330  -6.005205  -4.263402   0.435224   0.143577   0.000857  -0.000986  -4.893413   0.595670   5.271204   6.488211  -0.016985   0.005034  -6.287005   2.081914   0.531348   1.181601  -0.004992   0.002718
 -2.371663   0.915861   3.972521   2.755089   0.556274   0.449065  -3.461434   0.700167   0.265830   2.011129  -1.303448   0.768630  -0.653215   1.489497  -0.037194   3.782813  -4.789368   9.685045   7.642354   2.450376  26.047502   0.459486  23.891633  -0.133886   1.188002   0.130761  -3.656066   1.872693   1.111383 -10.259255   6.808670  -1.118178 -26.362113   0.218109 -13.519460   0.057315   1.116518  -1.245526   3.207003  -7.342236  -1.642003  -9.039266  10.160872   0.043211  -0.020393  -6.493326  -4.717905   0.573057   0.210621   0.001230  -0.001351  -5.257601   0.902968   6.123092   6.582549  -0.014221   0.004338  -6.386621   2.345161   0.707450   1.371260  -0.005591   0.003091
 -2.371085   0.914527   3.972505   2.877080   0.675589   0.906093  -3.629643   0.711988   0.073326   2.189069  -1.395978   0.692357  -0.812465   1.586039  -0.037465   4.052838  -4.962904  10.631416   8.228504   2.861565  28.416955   0.450627  26.130113  -0.130053   1.275136   0.227117  -2.963659   2.058914   1.139473 -11.148166   7.213165  -1.411223 -28.783064   0.206884 -14.602199   0.053132   1.176252  -1.464179   2.625971  -7.923596  -1.912088 -10.444655  11.265639   0.042412  -0.021453  -6.938605  -5.147800   0.694282   0.356436   0.001991  -0.002083  -5.866040   1.453757   5.706754   7.274921  -0.011084   0.007692  -5.781567   2.793356   0.421477   1.605371  -0.003974   0.004749
 -2.371293   0.913875   3.972823   2.995926   0.633320   1.058413  -3.829231   0.801837   0.147924   2.337915  -1.422889   0.698750  -0.961505   1.679079  -0.042440   4.309765  -5.114643  11.418874   8.764109   3.276474  30.608866   0.432796  28.230740  -0.123951   1.357058   0.361610  -2.206904   2.250893   1.195899 -11.928652   7.592329  -1.686350 -31.066834   0.193213 -15.617337   0.048330   1.229105  -1.690275   1.979596  -8.483787  -2.152262 -11.333304  12.327353   0.039424  -0.022745  -7.358547  -5.544869   0.806133   0.455138   0.002107  -0.002399  -6.269543   1.807490   5.614407   7.774523  -0.008826   0.007658  -5.578786   3.052618   0.465046   1.817947  -0.003327   0.004891
 -2.372008   0.913464   3.973288   3.131637   0.542938   1.097573  -4.042141   0.904995   0.288668   2.453324  -1.420775   0.755435  -1.107612   1.765978  -0.037529   4.545836  -5.249518  12.085474   9.247256   3.682996  32.614559   0.408339  30.196720  -0.116399   1.436224   0.521076  -1.508621   2.440633   1.266813 -12.594313   7.944486  -1.939861 -33.167892   0.177737 -16.561856   0.043373   1.276125  -1.898793   1.374477  -9.032113  -2.381345 -11.998290  13.328069   0.035684  -0.023483  -7.752923  -5.913660   0.909657   0.525270   0.001988  -0.002434  -6.592910   2.094928   5.663629   8.144011  -0.007153   0.006878  -5.481396   3.272559   0.552732   1.987182  -0.002876   0.004563
 -2.373178   0.913081   3.973570   3.228060   0.459270   1.122633  -4.025854   0.980448   0.379158   2.423036  -1.409773   0.831541  -1.330053   1.738630   0.008087   4.702015  -5.343772  12.426438   9.698723   4.070001  34.163336   0.374861  32.183939  -0.109328   1.416368   0.686940  -0.281003   2.640606   1.403957 -12.853471   8.250309  -2.179194 -34.994566   0.160175 -17.514848   0.038784   1.269112  -2.142194   0.348434  -9.494910  -2.741744 -12.551037  14.140640   0.030978  -0.023699  -8.056985  -6.256568   1.117907   0.667884   0.001928  -0.003097  -6.909072   2.454175   5.758189   8.565227  -0.005887   0.006668  -5.582878   3.568695   0.806355   2.125044  -0.002685   0.004383
 -2.374708   0.912724   3.973780   3.347604   0.385338   1.136716  -3.993987   1.065338   0.457015   2.387044  -1.380354   0.893055  -1.542474   1.706586   0.054495   4.807381  -5.414895  12.507502  10.085695   4.434929  35.440097   0.335529  34.052750  -0.101865   1.400619   0.926738   0.695058   2.820502   1.538414 -12.882346   8.528544  -2.388818 -36.551605   0.141218 -18.403531   0.034215   1.260203  -2.386655  -0.476305  -9.932665  -3.086383 -13.007585  14.878857   0.026452  -0.023046  -8.341014  -6.577467   1.311182   0.799977   0.001770  -0.003472  -7.221845   2.790330   5.886061   8.925830  -0.004924   0.006291  -5.725021   3.845391   1.054627   2.090414  -0.002048   0.003332
 -2.376542   0.912371   3.973950   3.487691   0.340817   1.145418  -3.955681   1.157999   0.523488   2.350773  -1.337782   0.936610  -1.739999   1.675717   0.098091   4.876392  -5.474638  12.408337  10.421458   4.771061  36.506288   0.295051  35.802290  -0.094569   1.388836   1.191871   1.383946   2.980617   1.667947 -12.757758   8.781389  -2.573713 -37.894519   0.122610 -19.230283   0.029744   1.251155  -2.607644  -1.061963 -10.336890  -3.411180 -13.390128  15.564239   0.022355  -0.021748  -8.606225  -6.877230   1.490340   0.918728   0.001566  -0.003583  -7.533879   3.095187   6.035894   9.227489  -0.004170   0.005827  -5.869534   4.098849   1.296413   2.204538  -0.001981   0.003215
 -2.378644   0.912016   3.974096   3.646414   0.336229   1.154926  -3.913569   1.255378   0.575535   2.315405  -1.286898   0.962121  -1.923536   1.646593   0.138347   4.919096  -5.528117  12.186428  10.716031   5.077894  37.407439   0.256260  37.437193  -0.087765   1.379988   1.457880   1.842841   3.124099   1.793214 -12.532252   9.012403  -2.737321 -39.066842   0.105315 -19.999098   0.025489   1.242303  -2.802081  -1.457702 -10.703734  -3.717732 -13.716380  16.205218   0.018752  -0.020008  -8.853569  -7.157240   1.656415   1.026445   0.001351  -0.003511  -7.847985   3.372661   6.198727   9.477623  -0.003563   0.005348  -6.021819   4.332759   1.528461   2.312196  -0.001912   0.003085
